<svg width="512" height="512" viewBox="0 0 512 512" xmlns="http://www.w3.org/2000/svg">
  <defs>
    <linearGradient id="bg" x1="0" y1="0" x2="1" y2="1">
      <stop offset="0" stop-color="#5B8DEF"/>
      <stop offset="1" stop-color="#3B5BDB"/>
    </linearGradient>
  </defs>
  <rect x="0" y="0" width="512" height="512" rx="112" fill="url(#bg)"/>
  <g fill="#FFFFFF">
    <!-- speaker body -->
    <path d="M196 200 L268 148 C280 139 296 148 296 163 L296 349 C296 364 280 373 268 364 L196 312 L152 312 C141 312 132 303 132 292 L132 220 C132 209 141 200 152 200 Z"/>
    <!-- sound waves -->
    <path d="M330 196 C356 222 356 290 330 316" stroke="#FFFFFF" stroke-width="22" fill="none" stroke-linecap="round"/>
    <path d="M362 164 C408 210 408 302 362 348" stroke="#FFFFFF" stroke-width="22" fill="none" stroke-linecap="round"/>
  </g>
</svg>
